<?xml version="1.0" encoding="UTF-8"?>
<!-- Generator: visioncortex VTracer -->
<svg id="svg" version="1.1" xmlns="http://www.w3.org/2000/svg" viewBox="0 0 400 400" style="display: block;"><path d="M0 0 C132 0 264 0 400 0 C400 132 400 264 400 400 C268 400 136 400 0 400 C0 268 0 136 0 0 Z " transform="translate(0,0)" style="fill: #000000;"/><path d="M0 0 C6.6 0 13.2 0 20 0 C20 38.28 20 76.56 20 116 C14.06 116 8.12 116 2 116 C1.67 112.04 1.34 108.08 1 104 C-0.44375 105.051875 -1.8875 106.10375 -3.375 107.1875 C-8.35689824 110.67836203 -13.45455304 113.51153893 -19 116 C-20.0828125 116.55107422 -20.0828125 116.55107422 -21.1875 117.11328125 C-30.0618493 119.91116638 -43.57554577 119.59383878 -51.89453125 115.3828125 C-59.95583562 110.08837512 -64.15708671 105.26150436 -67 96 C-67.63636886 92.06158286 -67.81635136 88.16860331 -67.91796875 84.18359375 C-67.94788406 83.08709 -67.97779938 81.99058624 -68.00862122 80.8608551 C-68.0592392 78.5576086 -68.09810623 76.25407645 -68.12573242 73.95043945 C-68.16695712 71.6058459 -68.24225149 69.26160761 -68.35131836 66.91918945 C-69.23340405 47.97092758 -69.23340405 47.97092758 -65.51470947 43.02423096 C-60.93770944 38.9844282 -55.17945436 36 -49 36 C-48.99120064 36.92508865 -48.99120064 36.92508865 -48.98222351 37.86886597 C-48.91796046 44.32628126 -48.83345819 50.78321326 -48.73754883 57.24023438 C-48.70443036 59.64544272 -48.67635833 62.05072634 -48.65356445 64.45605469 C-48.61977759 67.92675659 -48.56744905 71.39677673 -48.51171875 74.8671875 C-48.50532883 75.93113739 -48.4989389 76.99508728 -48.49235535 78.09127808 C-48.34684573 85.59166746 -47.75723838 93.32368216 -43.125 99.5 C-37.69090645 103.33583074 -32.50865888 103.8478036 -26 103 C-17.32424847 100.64440201 -10.76064392 96.80947108 -4 91 C-2.515 90.01 -2.515 90.01 -1 89 C-0.6840512 86.13209749 -0.56263038 83.47553123 -0.56762695 80.60302734 C-0.5574353 79.73466751 -0.54724365 78.86630768 -0.53674316 77.97163391 C-0.50647821 75.09300397 -0.49732673 72.21470601 -0.48828125 69.3359375 C-0.47144456 67.34338259 -0.4532957 65.35083837 -0.43388367 63.35830688 C-0.38626786 58.10745584 -0.35653352 52.85664811 -0.33044434 47.60565186 C-0.30069709 42.25003502 -0.25414684 36.89456761 -0.20898438 31.5390625 C-0.12281944 21.02610239 -0.05708531 10.51315828 0 0 Z " transform="translate(193,170)" style="fill: #4C9705;"/><path d="M0 0 C6.90822502 4.57989733 12.8637706 9.46613037 14.6328125 17.89135742 C15.73077369 25.97138435 15.81863681 34.14865375 16.00878906 42.29174805 C16.07571861 44.56686523 16.17133173 46.84132343 16.29589844 49.11401367 C17.28370761 67.53131518 17.28370761 67.53131518 13.63378906 72.34417725 C9.05555298 76.35548079 3.2728259 79.3984375 -2.890625 79.3984375 C-2.89649124 78.76696304 -2.90235748 78.13548859 -2.90840149 77.48487854 C-2.97259269 70.88163973 -3.05707774 64.27887673 -3.15307617 57.67602539 C-3.18622412 55.21547744 -3.21428722 52.7548553 -3.23706055 50.29418945 C-3.27079255 46.74658753 -3.32311928 43.19965926 -3.37890625 39.65234375 C-3.38529617 38.5613588 -3.3916861 37.47037384 -3.39826965 36.34632874 C-3.53855936 28.97257206 -4.18955009 22.03091756 -8.703125 15.9609375 C-13.92962181 12.22772549 -19.65508489 11.5063185 -25.890625 12.3984375 C-34.54281957 14.80003798 -41.15366099 18.5606576 -47.890625 24.3984375 C-48.57860168 24.75569412 -49.26657837 25.11295074 -49.97540283 25.48103333 C-52.44657761 27.9550235 -52.38745771 29.89009675 -52.45176697 33.29283142 C-52.4467366 34.09555984 -52.44170624 34.89828827 -52.43652344 35.7253418 C-52.44686111 36.57434052 -52.45719879 37.42333923 -52.46784973 38.29806519 C-52.49736569 41.1064538 -52.49877874 43.91412447 -52.5 46.72265625 C-52.51497573 48.66894411 -52.53170159 50.61521924 -52.55010986 52.56147766 C-52.59386383 57.68576631 -52.61380028 62.80988352 -52.62884521 67.93432617 C-52.64838732 73.16270113 -52.69036054 78.39089014 -52.73046875 83.61914062 C-52.80585823 93.87888047 -52.85402401 104.13848586 -52.890625 114.3984375 C-59.160625 114.3984375 -65.430625 114.3984375 -71.890625 114.3984375 C-71.890625 76.4484375 -71.890625 38.4984375 -71.890625 -0.6015625 C-54.890625 -0.6015625 -54.890625 -0.6015625 -53.890625 0.3984375 C-53.65698619 2.24735696 -53.47758865 4.10331781 -53.328125 5.9609375 C-53.20244141 7.47880859 -53.20244141 7.47880859 -53.07421875 9.02734375 C-53.01363281 9.80980469 -52.95304687 10.59226562 -52.890625 11.3984375 C-52.30796875 10.96273437 -51.7253125 10.52703125 -51.125 10.078125 C-36.78552606 -0.33828532 -17.46269873 -8.73134937 0 0 Z " transform="translate(128.890625,114.6015625)" style="fill: #21B544;"/><path d="M0 0 C3.614422 1.36017903 6.88612993 2.97961926 10.2265625 4.9140625 C11.75313477 5.79578125 11.75313477 5.79578125 13.31054688 6.6953125 C14.40431641 7.33210937 15.49808594 7.96890625 16.625 8.625 C17.78442384 9.29701541 18.94393066 9.96888766 20.10351562 10.640625 C29.38652612 16.02673383 38.61732969 21.50023246 47.84082031 26.98754883 C58.99038491 33.61155871 70.22293033 40.08692834 81.47412109 46.53637695 C82.72443115 47.26087036 82.72443115 47.26087036 84 48 C85.35472412 48.69512695 85.35472412 48.69512695 86.73681641 49.40429688 C89.47209476 51.33285991 89.84919007 52.29522462 90.4375 55.54296875 C91.28239382 61.62305086 91.53211359 67.30026196 89 73 C82.74399607 79.54616102 73.84184792 83.25255885 65.77587891 87.13525391 C59.93707714 89.97079659 54.39823085 93.3270102 48.8125 96.625 C46.67471988 97.85814722 44.53539912 99.0886275 42.39453125 100.31640625 C35.91693065 104.04328576 29.45557893 107.79762527 23 111.5625 C21.55911011 112.40192139 21.55911011 112.40192139 20.08911133 113.25830078 C14.68376859 116.41319967 9.31769657 119.61921405 3.99609375 122.91381836 C2 124 2 124 0 124 C-1.6317293 121.52589781 -3.14700164 119.06340341 -4.625 116.5 C-5.04523438 115.78457031 -5.46546875 115.06914062 -5.8984375 114.33203125 C-6.93888589 112.55853967 -7.97028904 110.77974734 -9 109 C-6.60875126 106.35416403 -4.06354927 104.74168745 -0.96875 102.98828125 C0.05589355 102.40344971 1.08053711 101.81861816 2.13623047 101.21606445 C3.24627441 100.58788818 4.35631836 99.95971191 5.5 99.3125 C7.86883223 97.96120237 10.23528262 96.60576105 12.6015625 95.25 C13.51568405 94.72694023 13.51568405 94.72694023 14.44827271 94.1933136 C20.96051377 90.46137137 27.42114277 86.6442898 33.875 82.8125 C35.54840454 81.82020386 35.54840454 81.82020386 37.25561523 80.80786133 C42.54163178 77.66806449 47.81683282 74.51174056 53.07421875 71.32421875 C54.00572754 70.76049561 54.93723633 70.19677246 55.89697266 69.6159668 C57.62961723 68.56555697 59.35990249 67.51124208 61.08740234 66.45239258 C61.84359863 65.99372803 62.59979492 65.53506348 63.37890625 65.0625 C64.0344751 64.66160156 64.69004395 64.26070313 65.36547852 63.84765625 C67 63 67 63 69 63 C69 62.34 69 61.68 69 61 C68.33871094 60.75894531 67.67742187 60.51789063 66.99609375 60.26953125 C63.19657843 58.65956713 59.65960775 56.70335275 56.0625 54.6875 C55.27746094 54.24946045 54.49242187 53.8114209 53.68359375 53.36010742 C46.64959792 49.4110645 39.70587792 45.31485989 32.77368164 41.19042969 C27.5462746 38.08374196 22.3025201 35.00824641 17.03125 31.9765625 C16.44500854 31.63934677 15.85876709 31.30213104 15.25476074 30.95469666 C12.38984288 29.30799182 9.52299248 27.66478007 6.65429688 26.0246582 C1.65929767 23.15871942 -3.27241054 20.29125586 -8 17 C-7.41734728 12.57676318 -5.73233789 9.4844136 -3.4375 5.6875 C-2.79683594 4.61886719 -2.15617188 3.55023438 -1.49609375 2.44921875 C-1.00238281 1.64097656 -0.50867188 0.83273438 0 0 Z " transform="translate(255,140)" style="fill: #F6F6F6;"/><path d="M0 0 C0.33 0 0.66 0 1 0 C2.77318301 7.30692851 3.91169989 14.87152384 1 22 C-5.18768515 28.57500797 -14.18198688 32.26437536 -22.22412109 36.13525391 C-28.06292286 38.97079659 -33.60176915 42.3270102 -39.1875 45.625 C-41.32528012 46.85814722 -43.46460088 48.0886275 -45.60546875 49.31640625 C-52.08306935 53.04328576 -58.54442107 56.79762527 -65 60.5625 C-66.44088989 61.40192139 -66.44088989 61.40192139 -67.91088867 62.25830078 C-73.31623141 65.41319967 -78.68230343 68.61921405 -84.00390625 71.91381836 C-86 73 -86 73 -88 73 C-89.6317293 70.52589781 -91.14700164 68.06340341 -92.625 65.5 C-93.04523438 64.78457031 -93.46546875 64.06914062 -93.8984375 63.33203125 C-94.93888589 61.55853967 -95.97028904 59.77974734 -97 58 C-94.60875126 55.35416403 -92.06354927 53.74168745 -88.96875 51.98828125 C-87.94426758 51.40353027 -86.91978516 50.8187793 -85.86425781 50.21630859 C-84.1989502 49.27392334 -84.1989502 49.27392334 -82.5 48.3125 C-80.12855906 46.9599084 -77.75948858 45.60319309 -75.390625 44.24609375 C-74.78079773 43.89718079 -74.17097046 43.54826782 -73.54266357 43.18878174 C-67.07364163 39.481537 -60.66021257 35.68301501 -54.25 31.875 C-53.13665283 31.21749756 -52.02330566 30.55999512 -50.8762207 29.88256836 C-45.42065732 26.65547405 -39.99716026 23.38931354 -34.62109375 20.03125 C-33.61852539 19.4139502 -32.61595703 18.79665039 -31.58300781 18.16064453 C-29.70332817 17.00145592 -27.83343959 15.82618084 -25.97558594 14.63232422 C-19.86136111 10.88981358 -19.86136111 10.88981358 -15.82421875 11.40625 C-12.54820499 13.25495486 -9.29297354 15.09726791 -6.125 17.125 C-4.10375 18.40375 -2.0825 19.6825 0 21 C0 14.07 0 7.14 0 0 Z " transform="translate(343,191)" style="fill: #C9C9C9;"/><path d="M0 0 C1.99310763 1.15006994 3.95317423 2.35940742 5.875 3.625 C6.84179688 4.25664062 7.80859375 4.88828125 8.8046875 5.5390625 C9.52914063 6.02117187 10.25359375 6.50328125 11 7 C6.87745797 8.68551848 3.10196511 7.28358669 -1 6.1875 C-1.7115625 6.00896484 -2.423125 5.83042969 -3.15625 5.64648438 C-6.63888236 4.74658777 -9.87244069 3.79997554 -13 2 C-7.74358885 -1.57435958 -6.1218278 -2.63238595 0 0 Z " transform="translate(330,204)" style="fill: #B3B3B3;"/></svg>